<?xml version="1.0" encoding="utf-8"?>
<!-- Generator: Adobe Illustrator 28.3.0, SVG Export Plug-In . SVG Version: 6.00 Build 0)  -->
<svg version="1.1" id="Layer_1" xmlns="http://www.w3.org/2000/svg" xmlns:xlink="http://www.w3.org/1999/xlink" x="0px" y="0px"
	 viewBox="0 0 215 94" style="enable-background:new 0 0 215 94;" xml:space="preserve">
<style type="text/css">
	.st0{clip-path:url(#SVGID_00000157288841049080696070000014826080370187529610_);}
	.st1{fill:#F77781;}
	.st2{fill:#FEEFE6;}
</style>
<g>
	<defs>
		<rect id="SVGID_1_" width="215" height="94"/>
	</defs>
	<clipPath id="SVGID_00000132796562310535361690000014054163849858965382_">
		<use xlink:href="#SVGID_1_"  style="overflow:visible;"/>
	</clipPath>
	<g id="logo" style="clip-path:url(#SVGID_00000132796562310535361690000014054163849858965382_);">
		<g id="Group">
			<path id="Vector" class="st1" d="M211.9,54c-0.8,0-1.5-0.3-2.1-0.8c-0.6-0.5-0.8-1.3-0.8-2.2V29.7h-8.4v3.7
				c-1.1-1.5-2.4-2.6-3.9-3.3c-1.5-0.7-3.1-1.1-4.8-1.1c-2.1,0-3.9,0.5-5.6,1.3c-1.7,0.9-3.1,2.1-4.3,3.6c-1.2,1.5-2.1,3.3-2.7,5.3
				c-0.6,2-1,4.2-1,6.4c0,0.4,0,0.9,0,1.3c-0.6-1.1-1.3-2.2-1.9-3.3c-0.6-0.8-1-1.5-1.4-2.2c-0.4-0.7-0.5-1.4-0.5-2
				c0-1,0.3-1.8,0.8-2.4c0.5-0.6,1.2-1.2,2-1.6l-5.4-6.6c-4.6,2.1-6.9,5.7-6.9,10.6c0,1.3,0.3,2.5,0.9,3.7c0.6,1.2,1.3,2.3,2.1,3.4
				c0.6,1,1.2,1.8,1.6,2.6c0.4,0.8,0.7,1.5,0.7,2.3c0,0.9-0.3,1.6-0.8,2.1c-0.6,0.5-1.3,0.8-2.2,0.8s-1.6-0.3-2.4-0.8
				c-0.5-0.3-1.3-0.7-2.1-1.5c-0.3,0.3-0.8,0.8-1.6,1.2c-0.8,0.4-1.6,0.4-1.9,0.4c-0.9,0-1.7-0.3-2.4-0.8c-0.7-0.5-1-1.3-1-2.2V29.4
				h-9.5v22.5c0,0,0,0,0,0c-0.1,0.1-0.1,0.1-0.2,0.2c-0.4,0.2-0.7,0.5-1.1,0.7c-0.7,0.4-1.5,0.5-2.3,0.5c-1,0-1.8-0.3-2.4-0.8
				c-0.6-0.5-1-1.3-1-2.2v-49h-9.6V33c-1.3-1.6-2.8-2.8-4.5-3.5c-1.7-0.7-3.6-1.1-5.6-1.1c-2.4,0-4.5,0.5-6.4,1.3
				c-1.9,0.9-3.5,2.1-4.9,3.6c-1.4,1.5-2.4,3.3-3.1,5.3c-0.7,2-1.1,4.2-1.1,6.4c0,2.2,0.4,4.5,1.1,6.5c0.1,0.2,0.2,0.5,0.3,0.7
				c-0.7,0.4-1.5,0.6-2.4,0.6c-1,0-1.8-0.3-2.4-0.8c-0.6-0.5-1-1.3-1-2.2V28.6h-9.6v3.7c-1.3-1.5-2.8-2.6-4.5-3.3
				c-1.7-0.7-3.5-1.1-5.5-1.1c-2.4,0-4.5,0.5-6.4,1.3c-1.9,0.9-3.5,2.1-4.9,3.6c-1.4,1.5-2.4,3.3-3.1,5.3c-0.7,2-1.1,4.2-1.1,6.4
				c0,2.2,0.4,4.5,1.1,6.5c0.1,0.3,0.2,0.5,0.3,0.8c-1.5-0.3-2.3-1.3-2.3-3.1V19c0-2.5-0.4-4.9-1.1-7.2c-0.7-2.3-1.8-4.3-3.2-6.1
				c-1.4-1.7-3.1-3.1-5.2-4.2C52.4,0.5,50,0,47.3,0c-3.2,0-6.2,0.5-8.9,1.6c-2.7,1.1-5,3-6.9,5.8c-1.6-2.6-3.7-4.5-6.2-5.6
				C22.8,0.6,20,0,17,0C11.8,0,7.7,1.4,4.6,4.3C1.5,7.2,0,11.3,0,16.4c0,2.7,0.6,5.3,1.9,7.7c1.3,2.4,3.1,4.3,5.5,5.7l7.3-6.1
				c-1.3-0.6-2.4-1.6-3.2-3c-0.9-1.4-1.3-2.8-1.3-4.3c0-2,0.7-3.5,2-4.7c1.3-1.2,2.9-1.8,4.9-1.8c1.3,0,2.4,0.3,3.3,0.8
				c0.9,0.5,1.6,1.2,2.2,2.1c0.5,0.9,0.9,1.9,1.1,3c0.2,1.1,0.3,2.2,0.3,3.2v41.6h10.5V19.9c0-1.4,0.3-2.7,0.8-4
				c0.6-1.2,1.3-2.3,2.3-3.2c1-0.9,2.1-1.7,3.4-2.2c1.3-0.5,2.6-0.8,3.9-0.8c2.9,0,5.1,0.9,6.4,2.6c1.4,1.7,2,4,2,6.8v30.6
				c0,3.8,0.9,6.7,2.8,8.8c1.9,2.1,4.7,3.1,8.6,3.1c0.5,0,1.1,0,1.9-0.1c0.7-0.1,1.5-0.2,2.2-0.5c0.7-0.2,1.4-0.5,1.9-0.8
				c0.5-0.3,0.9-0.7,1.2-1.1c0.6,0.4,1.3,0.8,2,1.1c1.9,0.9,4.1,1.3,6.4,1.3s4.4-0.5,6.2-1.4c1.9-0.9,3.4-2.4,4.6-4.3
				c0.8,1.7,1.9,3.1,3.3,4.1c1.4,1.1,3.1,1.6,4.9,1.6c1.3,0,2.6-0.2,3.9-0.5c0.9-0.2,1.8-0.6,2.6-1.1c0.3-0.2,0.6-0.4,0.8-0.6
				c0.5-0.4,1-0.8,1.4-1.3c0.2-0.2,0.4-0.5,0.6-0.7c1.3,1.3,2.8,2.4,4.5,3.2c1.9,0.9,4.1,1.3,6.4,1.3c2.4,0,4.5-0.5,6.3-1.5
				c1.9-1,3.4-2.5,4.7-4.4c0.7,1.7,1.8,3.2,3.2,4.3c1.5,1.1,3.2,1.6,5,1.6c1.3,0,2.6-0.2,3.9-0.5c0.3-0.1,1-0.3,1.9-0.7
				c1.2-0.5,1.9-1,2.5-1.4c0.5-0.4,0.8-0.7,1.1-0.9c0.2,0.2,0.3,0.5,0.5,0.7c0.8,1,1.8,1.7,2.9,2.3c1,0.6,2.2,0.8,3.4,0.9
				c0.6,0,2.1,0.2,4-0.1c1.4-0.2,2.7-0.6,3.7-1c1.1,0.6,2.3,1,3.6,1.3c1.4,0.2,2.6,0.3,3.9,0.3c1.4,0,2.7-0.3,3.9-0.8
				c1.2-0.5,2.2-1.2,3-2.1c0.8-0.9,1.5-2,1.9-3.2c0.3-0.9,0.5-1.8,0.6-2.8c0.6,1.4,1.3,2.7,2.2,3.9c1.2,1.5,2.6,2.7,4.3,3.6
				c1.7,0.9,3.5,1.3,5.6,1.3c2.1,0,3.8-0.5,5.4-1.4c1.6-0.9,3-2.4,4-4.3c0.7,1.7,1.6,3.1,2.9,4.1c1.2,1.1,2.7,1.6,4.3,1.6
				c1.1,0,2.2-0.2,3.4-0.5c1.1-0.3,2.1-0.9,3-1.6v-7.8C214.1,53.6,213.1,54,211.9,54L211.9,54z M90.2,47.9c-0.6,1.6-1.6,2.9-3,4
				c-1.4,1-2.9,1.5-4.7,1.5c-1.2,0-2.3-0.2-3.3-0.7c-1-0.5-1.9-1.1-2.6-1.9c-0.7-0.8-1.3-1.7-1.7-2.8c-0.4-1-0.6-2.1-0.6-3.3
				c0-1.2,0.2-2.3,0.6-3.3c0.4-1,1-2,1.7-2.8c0.7-0.8,1.6-1.5,2.6-1.9c1-0.5,2.1-0.7,3.3-0.7c1.7,0,3.3,0.5,4.7,1.5
				c1.4,1,2.4,2.3,3,4V47.9L90.2,47.9z M129.9,47.8c0,0.1-0.1,0.4-0.3,0.7c-0.2,0.4-0.3,0.6-0.3,0.7c-0.7,1.4-1.7,2.5-3,3.3
				c-1.3,0.8-2.7,1.2-4.3,1.2c-1.2,0-2.3-0.2-3.3-0.7s-1.9-1.1-2.6-1.9c-0.7-0.8-1.3-1.7-1.7-2.8c-0.4-1-0.6-2.1-0.6-3.3
				c0-1.2,0.2-2.3,0.6-3.3c0.4-1,1-2,1.7-2.8c0.7-0.8,1.6-1.5,2.6-1.9c1-0.5,2.1-0.7,3.3-0.7c1.6,0,3,0.4,4.3,1.3
				c1.3,0.8,2.3,1.9,3,3.3c0.1,0.1,0.2,0.4,0.3,0.7c0.2,0.4,0.3,0.6,0.3,0.7V47.8z M200.6,49c-0.5,1.6-1.4,2.9-2.6,4
				c-1.2,1-2.6,1.5-4.1,1.5c-1,0-2-0.2-2.9-0.7c-0.9-0.5-1.6-1.1-2.3-1.9c-0.6-0.8-1.1-1.7-1.5-2.8c-0.4-1-0.6-2.1-0.6-3.3
				c0-1.2,0.2-2.3,0.6-3.3c0.4-1,0.9-2,1.5-2.8c0.6-0.8,1.4-1.5,2.3-1.9c0.9-0.5,1.8-0.7,2.9-0.7c1.5,0,2.9,0.5,4.1,1.5
				c1.2,1,2.1,2.3,2.6,4V49L200.6,49z"/>
			<path id="Vector_2" class="st1" d="M151.3,22.8c1.8,0,3.3-0.7,4.6-2c1.3-1.3,1.9-2.9,1.9-4.7s-0.6-3.4-1.9-4.7
				c-1.3-1.3-2.8-2-4.6-2c-1.8,0-3.4,0.7-4.7,2c-1.3,1.3-1.9,2.9-1.9,4.7s0.6,3.4,1.9,4.7C147.9,22.2,149.4,22.8,151.3,22.8z"/>
		</g>
		<path id="Vector_3" class="st2" d="M24.8,90.7V70.9h3.3v3.3h9.9v-3.3h3.3v19.8h-3.3V77.5h-9.9v13.2H24.8z M28.1,70.9v-3.3h9.9v3.3
			H28.1z"/>
		<path id="Vector_4" class="st2" d="M44.7,90.7V74.2H48v3.3h3.3v3.3H48v9.9H44.7z M51.3,77.5v-3.3h6.6v3.3H51.3z M57.9,80.8v-3.3
			h3.3v3.3H57.9z"/>
		<path id="Vector_5" class="st2" d="M67.9,87.4V74.2h-3.3v-3.3h3.3v-3.3h3.3v3.3h3.3v3.3h-3.3v13.2H67.9z M71.2,90.7v-3.3h3.3v3.3
			H71.2z"/>
		<path id="Vector_6" class="st2" d="M84.4,87.4v-6.6h3.3v6.6H84.4z M87.7,74.2v-3.3H91v3.3H87.7z M94.3,87.4v-3.3H91v-3.3h-3.3
			v-3.3H91v-3.3h3.3v6.6h3.3v6.6H94.3z M87.7,90.7v-3.3h6.6v3.3H87.7z M91,70.9v-3.3h3.3v3.3H91z M94.3,74.2v-3.3h3.3v3.3H94.3z
			 M97.6,80.8v-3.3h3.3v3.3H97.6z M97.6,90.7v-3.3h3.3v3.3H97.6z"/>
		<path id="Vector_7" class="st2" d="M110.9,90.7V67.6h13.2v3.3h-9.9v16.5h9.9v3.3H110.9z M124.1,87.4V70.9h3.3v16.5H124.1z"/>
		<path id="Vector_8" class="st2" d="M130.7,87.4v-9.9h3.3v3.3h9.9v-3.3h3.3v6.6h-13.2v3.3H130.7z M134.1,77.5v-3.3h9.9v3.3H134.1z
			 M134.1,90.7v-3.3h13.2v3.3H134.1z"/>
		<path id="Vector_9" class="st2" d="M150.6,80.8v-3.3h3.3v3.3H150.6z M150.6,90.7v-3.3h13.2v3.3H150.6z M153.9,77.5v-3.3h13.2v3.3
			H153.9z M153.9,84.1v-3.3h9.9v3.3H153.9z M163.8,87.4v-3.3h3.3v3.3H163.8z"/>
		<path id="Vector_10" class="st2" d="M170.5,70.9v-3.3h3.3v3.3H170.5z M170.5,90.7V74.2h3.3v16.5H170.5z"/>
		<path id="Vector_11" class="st2" d="M177.1,84.1v-6.6h3.3v6.6H177.1z M177.1,94v-3.3h13.2V94H177.1z M190.3,90.7v-3.3h-9.9v-3.3
			h9.9v-6.6h-9.9v-3.3h13.2v16.5H190.3z"/>
		<path id="Vector_12" class="st2" d="M196.9,90.7V74.2h13.2v3.3h-9.9v13.2H196.9z M210.2,90.7V77.5h3.3v13.2H210.2z"/>
	</g>
</g>
</svg>
