<?xml version="1.0" encoding="UTF-8"?>
<svg id="Layer_1" data-name="Layer 1" xmlns="http://www.w3.org/2000/svg" viewBox="0 0 256 127.57">
  <defs>
    <style>
      .cls-1 {
        fill: #feefe6;
      }

      .cls-2 {
        fill: #f77781;
      }
    </style>
  </defs>
  <path class="cls-2" d="M99,81.1c-.94.85-1.73,1.33-1.99,1.49-.19.11-.47.27-.81.44-.74.36-1.37.57-1.86.72-.97.31-1.95.52-2.95.64-1,.12-1.85.17-2.55.17-5.33,0-9.27-1.43-11.81-4.29-2.55-2.86-3.82-6.87-3.82-12.05V26.18c0-3.86-.93-6.97-2.78-9.32-1.85-2.36-4.79-3.53-8.8-3.53-1.85,0-3.65.37-5.39,1.1-1.74.73-3.28,1.74-4.63,3.01-1.35,1.27-2.41,2.76-3.19,4.46-.77,1.7-1.16,3.52-1.16,5.44v56.18h-14.48V26.29c0-1.47-.16-2.95-.46-4.46-.31-1.51-.83-2.88-1.56-4.11-.73-1.23-1.72-2.22-2.95-2.95-1.24-.73-2.74-1.1-4.52-1.1-2.63,0-4.85.81-6.66,2.43-1.82,1.62-2.72,3.78-2.72,6.49,0,2.01.6,3.98,1.8,5.91,1.2,1.93,2.68,3.32,4.46,4.17l-9.96,8.34c-3.24-1.85-5.75-4.46-7.53-7.82-1.78-3.36-2.66-6.89-2.66-10.6C0,15.48,2.12,9.94,6.37,5.97,10.62,1.99,16.25,0,23.28,0c4.17,0,7.97.81,11.41,2.43,3.43,1.62,6.27,4.21,8.51,7.76,2.55-3.78,5.69-6.43,9.44-7.93,3.74-1.51,7.82-2.26,12.22-2.26,3.78,0,7.08.71,9.9,2.14,2.82,1.43,5.19,3.34,7.12,5.73,1.93,2.39,3.38,5.17,4.34,8.34.96,3.17,1.45,6.49,1.45,9.96v40.89c0,2.94,1.47,4.4,4.4,4.4,1.23,0,2.47-.29,3.71-.87.68-.32,1.33-.71,1.91-1.18.26-.21.49-.46.74-.69.18-.16.43-.27.56-.48.04-.06.07-.13.13-.17.06-.03.13-.03.2-.02l1.27.12c.08,0,.16.02.22.07.05.05.07.12.09.18.71,2.62,1.17,5.37.72,8.04-.06.36-.14.6-.18.75-.16.57-.52,1.75-1.44,2.88-.3.37-.54.58-1,1Z"/>
  <path class="cls-2" d="M154.12,81.66c-1.39,1.08-2.97,1.84-4.75,2.26-1.78.42-3.55.64-5.33.64-2.55,0-4.81-.73-6.78-2.2s-3.49-3.36-4.58-5.68c-1.7,2.7-3.82,4.69-6.37,5.97-2.55,1.27-5.41,1.91-8.57,1.91s-6.18-.62-8.8-1.85c-2.63-1.23-4.86-2.9-6.72-4.98s-3.28-4.52-4.29-7.3c-1-2.78-1.51-5.75-1.51-8.92s.5-6.02,1.51-8.8c1-2.78,2.43-5.21,4.29-7.3,1.85-2.09,4.09-3.74,6.72-4.98,2.62-1.23,5.56-1.85,8.8-1.85,2.7,0,5.21.48,7.53,1.45,2.32.97,4.36,2.49,6.14,4.57v-5.1h13.2v29.19c0,1.31.44,2.34,1.33,3.07.89.73,1.99,1.1,3.3,1.1,1.78,0,3.4-.62,4.86-1.85v10.66ZM131.42,56.99c-.85-2.24-2.22-4.05-4.11-5.44-1.89-1.39-4.04-2.08-6.43-2.08-1.62,0-3.13.33-4.52.98-1.39.66-2.59,1.55-3.59,2.66-1,1.12-1.8,2.39-2.37,3.82-.58,1.43-.87,2.95-.87,4.58s.29,3.15.87,4.58c.58,1.43,1.37,2.7,2.37,3.82,1,1.12,2.2,2.01,3.59,2.66,1.39.66,2.9.98,4.52.98,2.39,0,4.54-.7,6.43-2.08,1.89-1.39,3.26-3.2,4.11-5.44v-9.03Z"/>
  <path class="cls-2" d="M202.7,81.68c-.58.46-1.25.84-1.88,1.17-.92.47-1.89.83-2.89,1.07-1.78.42-3.52.64-5.21.64-1.93,0-3.69-.41-5.27-1.22-1.58-.81-2.92-1.87-4-3.19-1.08-1.31-1.93-2.82-2.55-4.52-.62-1.7-.93-3.44-.93-5.21v-14.48c0-1.78-.46-3.3-1.39-4.58-.93-1.27-2.36-1.91-4.29-1.91s-3.47.56-4.63,1.68c-1.16,1.12-2.05,2.53-2.66,4.23-.08.16-.19.54-.35,1.16-.16.62-.23,1-.23,1.16v25.83h-13.2v-44.02h13.2v4.29c1.31-1.78,2.99-3.09,5.04-3.94,2.05-.85,4.15-1.27,6.31-1.27s4.3.43,6.2,1.27c1.89.85,3.51,2.01,4.87,3.47,1.35,1.47,2.41,3.17,3.19,5.1.77,1.93,1.16,3.98,1.16,6.14v14.13c0,1.31.46,2.34,1.39,3.07.93.73,2.01,1.1,3.24,1.1,1.02,0,2.03-.21,2.96-.64.49-.22.96-.5,1.4-.82.21-.15.32-.28.58-.24.23.03.53.04.76.12.18.07.32.21.45.36.66.72,1.33,1.46,1.69,2.37.12.32.2.65.27.98.06.31.12.62.13.94.04,1.01-.32,2-.85,2.86s-1.22,1.61-1.9,2.35c-.18.2-.38.38-.6.55Z"/>
  <path class="cls-2" d="M256,81.66c-1.39,1.08-2.97,1.84-4.75,2.26-1.78.42-3.55.64-5.33.64-2.55,0-4.81-.73-6.78-2.2s-3.49-3.36-4.58-5.68c-1.7,2.7-3.82,4.69-6.37,5.97-2.55,1.27-5.41,1.91-8.57,1.91s-6.18-.62-8.8-1.85c-2.63-1.23-4.86-2.9-6.72-4.98s-3.28-4.52-4.29-7.3c-1-2.78-1.51-5.75-1.51-8.92s.5-6.02,1.51-8.8c1-2.78,2.43-5.21,4.29-7.3,1.85-2.09,4.09-3.74,6.72-4.98,2.62-1.23,5.56-1.85,8.8-1.85,2.7,0,5.21.48,7.53,1.45,2.32.97,4.36,2.49,6.14,4.57v-5.1h13.2v29.19c0,1.31.44,2.34,1.33,3.07.89.73,1.99,1.1,3.3,1.1,1.78,0,3.4-.62,4.86-1.85v10.66ZM233.3,56.99c-.85-2.24-2.22-4.05-4.11-5.44-1.89-1.39-4.04-2.08-6.43-2.08-1.62,0-3.13.33-4.52.98-1.39.66-2.59,1.55-3.59,2.66-1,1.12-1.8,2.39-2.37,3.82-.58,1.43-.87,2.95-.87,4.58s.29,3.15.87,4.58c.58,1.43,1.37,2.7,2.37,3.82,1,1.12,2.2,2.01,3.59,2.66,1.39.66,2.9.98,4.52.98,2.39,0,4.54-.7,6.43-2.08,1.89-1.39,3.26-3.2,4.11-5.44v-9.03Z"/>
  <g>
    <path class="cls-1" d="M12.17,123.32v-25.5h4.25v4.25h12.75v-4.25h4.25v25.5h-4.25v-17h-12.75v17h-4.25ZM16.42,97.82v-4.25h12.75v4.25h-12.75Z"/>
    <path class="cls-1" d="M37.67,123.32v-21.25h4.25v4.25h4.25v4.25h-4.25v12.75h-4.25ZM46.17,106.32v-4.25h8.5v4.25h-8.5ZM54.67,110.57v-4.25h4.25v4.25h-4.25Z"/>
    <path class="cls-1" d="M67.42,119.07v-17h-4.25v-4.25h4.25v-4.25h4.25v4.25h4.25v4.25h-4.25v17h-4.25ZM71.67,123.32v-4.25h4.25v4.25h-4.25Z"/>
    <path class="cls-1" d="M88.67,119.07v-8.5h4.25v8.5h-4.25ZM92.92,102.07v-4.25h4.25v4.25h-4.25ZM101.42,119.07v-4.25h-4.25v-4.25h-4.25v-4.25h4.25v-4.25h4.25v8.5h4.25v8.5h-4.25ZM92.92,123.32v-4.25h8.5v4.25h-8.5ZM97.17,97.82v-4.25h4.25v4.25h-4.25ZM101.42,102.07v-4.25h4.25v4.25h-4.25ZM105.67,110.57v-4.25h4.25v4.25h-4.25ZM105.67,123.32v-4.25h4.25v4.25h-4.25Z"/>
    <path class="cls-1" d="M122.67,123.32v-29.75h17v4.25h-12.75v21.25h12.75v4.25h-17ZM139.67,119.07v-21.25h4.25v21.25h-4.25Z"/>
    <path class="cls-1" d="M148.17,119.07v-12.75h4.25v4.25h12.75v-4.25h4.25v8.5h-17v4.25h-4.25ZM152.42,106.32v-4.25h12.75v4.25h-12.75ZM152.42,123.32v-4.25h17v4.25h-17Z"/>
    <path class="cls-1" d="M173.67,110.57v-4.25h4.25v4.25h-4.25ZM173.67,123.32v-4.25h17v4.25h-17ZM177.92,106.32v-4.25h17v4.25h-17ZM177.92,114.82v-4.25h12.75v4.25h-12.75ZM190.67,119.07v-4.25h4.25v4.25h-4.25Z"/>
    <path class="cls-1" d="M199.17,97.82v-4.25h4.25v4.25h-4.25ZM199.17,123.32v-21.25h4.25v21.25h-4.25Z"/>
    <path class="cls-1" d="M207.67,114.82v-8.5h4.25v8.5h-4.25ZM207.67,127.57v-4.25h17v4.25h-17ZM224.67,123.32v-4.25h-12.75v-4.25h12.75v-8.5h-12.75v-4.25h17v21.25h-4.25Z"/>
    <path class="cls-1" d="M233.17,123.32v-21.25h17v4.25h-12.75v17h-4.25ZM250.17,123.32v-17h4.25v17h-4.25Z"/>
  </g>
</svg>